<svg xmlns="http://www.w3.org/2000/svg" version="1.1" xmlns:xlink="http://www.w3.org/1999/xlink" xmlns:svgjs="http://svgjs.dev/svgjs" width="2000" height="1500" viewBox="0 0 2000 1500"><rect width="2000" height="1500" fill="#cf5260"></rect><g transform="matrix(0.75,0,0,0.75,249.090909090909,282.7536437246963)"><svg viewBox="0 0 396 247" data-background-color="#cf5260" preserveAspectRatio="xMidYMid meet" height="1247" width="2000" xmlns="http://www.w3.org/2000/svg" xmlns:xlink="http://www.w3.org/1999/xlink"><g id="tight-bounds" transform="matrix(1,0,0,1,0.2400000000000091,-0.09999999999999432)"><svg viewBox="0 0 395.52 247.2" height="247.2" width="395.52"><g><svg></svg></g><g><svg viewBox="0 0 395.52 247.2" height="247.2" width="395.52"><mask id="cdb74289-6328-4c07-b3e8-3ff71c327af4"><rect width="395.52" height="247.2" fill="white"></rect><g transform="matrix(1,0,0,1,66.50005263157894,37.08)" id="clone"><svg viewBox="0 0 262.5198947368421 173.04" height="173.04" width="262.5198947368421"><g><svg viewBox="0 0 262.5198947368421 173.04" height="173.04" width="262.5198947368421"><g><svg viewBox="0 0 262.51989473684216 173.04000000000002" height="173.04" width="262.5198947368421"><g><svg viewBox="0 0 262.51989473684216 173.04000000000002" height="173.04000000000002" width="262.51989473684216"><g id="SvgjsG1154"><svg viewBox="0 0 262.51989473684216 173.04000000000002" height="173.04000000000002" width="262.51989473684216" id="SvgjsSvg1153"><g><svg viewBox="0 0 262.51989473684216 173.04000000000002" height="173.04000000000002" width="262.51989473684216"><g transform="matrix(1,0,0,1,0,0)"><svg width="262.51989473684216" viewBox="1.9499998092651367 -36 58.64999771118164 39" height="173.04000000000002" data-palette-color="#f0f0f0"><path d="M25.55-33L26.7-33 13.5-19.55 13.4-19.45 5.3-11.25 5.3-12.4 25.55-33ZM4.95-33L5.75-33 5.75 0 4.95 0 4.95-33ZM12.95-19.5L13.5-20.2 27.2 0 26.15 0 12.95-19.5ZM56.8-33L57.6-33 57.6 0 56.5 0 34.85-30.25 33.55-32.2 33.55-32.2 33.6-29.35 33.6 0 32.8 0 32.8-33 33.9-33 55.55-2.75 56.85-0.8 56.85-0.8 56.8-3.65 56.8-33Z" opacity="1" transform="matrix(1,0,0,1,0,0)" fill="black" class="wordmark-text-0" id="SvgjsPath1152" stroke-width="5" stroke="black" stroke-linejoin="round"></path></svg></g></svg></g></svg></g></svg></g></svg></g></svg></g></svg></g></mask><g mask="url(#cdb74289-6328-4c07-b3e8-3ff71c327af4)"><g><path xmlns="http://www.w3.org/2000/svg" d="M268.736 0h8.615l-98.88 100.753-0.749 0.749-60.677 61.425v-8.614zM114.424 0h5.992v247.2h-5.992zM174.351 101.127l4.12-5.243 102.625 151.316h-7.865z" fill="#f0f0f0" fill-rule="nonzero" stroke="none" stroke-width="1" stroke-linecap="butt" stroke-linejoin="miter" stroke-miterlimit="10" stroke-dasharray="" stroke-dashoffset="0" font-family="none" font-weight="none" font-size="none" text-anchor="none" style="mix-blend-mode: normal" data-fill-palette-color="tertiary"></path></g></g><g transform="matrix(1,0,0,1,66.50005263157894,37.08)"><svg viewBox="0 0 262.5198947368421 173.04" height="173.04" width="262.5198947368421"><g><svg viewBox="0 0 262.5198947368421 173.04" height="173.04" width="262.5198947368421"><g><svg viewBox="0 0 262.51989473684216 173.04000000000002" height="173.04" width="262.5198947368421"><g><svg viewBox="0 0 262.51989473684216 173.04000000000002" height="173.04000000000002" width="262.51989473684216"><g id="textblocktransform"><svg viewBox="0 0 262.51989473684216 173.04000000000002" height="173.04000000000002" width="262.51989473684216" id="textblock"><g><svg viewBox="0 0 262.51989473684216 173.04000000000002" height="173.04000000000002" width="262.51989473684216"><g transform="matrix(1,0,0,1,0,0)"><svg width="262.51989473684216" viewBox="1.9499998092651367 -36 58.64999771118164 39" height="173.04000000000002" data-palette-color="#f0f0f0"><path d="M25.55-33L26.7-33 13.5-19.55 13.4-19.45 5.3-11.25 5.3-12.4 25.55-33ZM4.95-33L5.75-33 5.75 0 4.95 0 4.95-33ZM12.95-19.5L13.5-20.2 27.2 0 26.15 0 12.95-19.5ZM56.8-33L57.6-33 57.6 0 56.5 0 34.85-30.25 33.55-32.2 33.55-32.2 33.6-29.35 33.6 0 32.8 0 32.8-33 33.9-33 55.55-2.75 56.85-0.8 56.85-0.8 56.8-3.65 56.8-33Z" opacity="1" transform="matrix(1,0,0,1,0,0)" fill="#f0f0f0" class="wordmark-text-0" data-fill-palette-color="primary" id="text-0"></path></svg></g></svg></g></svg></g></svg></g></svg></g></svg></g></svg></g></svg></g><defs></defs></svg><rect width="395.52" height="247.2" fill="none" stroke="none" visibility="hidden"></rect></g></svg></g></svg>